<mxfile host="app.diagrams.net" agent="Mozilla/5.0 (Windows NT 10.0; Win64; x64) AppleWebKit/537.36 (KHTML, like Gecko) Chrome/131.0.0.0 Safari/537.36" version="25.0.3">
  <diagram name="Page-1" id="yATxMYgGwdxvMyTPuxfp">
    <mxGraphModel dx="1050" dy="570" grid="1" gridSize="10" guides="1" tooltips="1" connect="1" arrows="1" fold="1" page="1" pageScale="1" pageWidth="850" pageHeight="1100" math="0" shadow="0">
      <root>
        <mxCell id="0" />
        <mxCell id="1" parent="0" />
        <mxCell id="MZ17suuXStQWREge3JEq-5" value="" style="edgeStyle=orthogonalEdgeStyle;rounded=0;orthogonalLoop=1;jettySize=auto;html=1;" edge="1" parent="1" source="MZ17suuXStQWREge3JEq-2" target="MZ17suuXStQWREge3JEq-4">
          <mxGeometry relative="1" as="geometry" />
        </mxCell>
        <mxCell id="MZ17suuXStQWREge3JEq-2" value="&lt;b&gt;User Input&lt;/b&gt;&lt;div&gt;Comments /&amp;nbsp; Code Snippets&lt;/div&gt;" style="rounded=1;whiteSpace=wrap;html=1;" vertex="1" parent="1">
          <mxGeometry x="40" y="120" width="120" height="60" as="geometry" />
        </mxCell>
        <mxCell id="MZ17suuXStQWREge3JEq-7" value="" style="edgeStyle=orthogonalEdgeStyle;rounded=0;orthogonalLoop=1;jettySize=auto;html=1;" edge="1" parent="1" source="MZ17suuXStQWREge3JEq-4" target="MZ17suuXStQWREge3JEq-6">
          <mxGeometry relative="1" as="geometry" />
        </mxCell>
        <mxCell id="MZ17suuXStQWREge3JEq-4" value="&lt;div&gt;&lt;b&gt;IDE Plugins&lt;/b&gt;&lt;/div&gt;&lt;div&gt;VS Code, JetBrains&lt;/div&gt;" style="rounded=1;whiteSpace=wrap;html=1;" vertex="1" parent="1">
          <mxGeometry x="40" y="240" width="120" height="60" as="geometry" />
        </mxCell>
        <mxCell id="MZ17suuXStQWREge3JEq-10" value="" style="edgeStyle=orthogonalEdgeStyle;rounded=0;orthogonalLoop=1;jettySize=auto;html=1;" edge="1" parent="1" source="MZ17suuXStQWREge3JEq-6" target="MZ17suuXStQWREge3JEq-8">
          <mxGeometry relative="1" as="geometry" />
        </mxCell>
        <mxCell id="MZ17suuXStQWREge3JEq-6" value="&lt;div&gt;&lt;b style=&quot;background-color: initial;&quot;&gt;Context Collector&lt;/b&gt;&lt;/div&gt;&lt;div&gt;&lt;br&gt;&lt;/div&gt;&lt;div&gt;Data sources&lt;br&gt;&lt;div&gt;Current file, open files, Project files&lt;/div&gt;&lt;/div&gt;" style="rounded=1;whiteSpace=wrap;html=1;" vertex="1" parent="1">
          <mxGeometry x="240" y="220" width="120" height="100" as="geometry" />
        </mxCell>
        <mxCell id="MZ17suuXStQWREge3JEq-11" value="" style="edgeStyle=orthogonalEdgeStyle;rounded=0;orthogonalLoop=1;jettySize=auto;html=1;" edge="1" parent="1" source="MZ17suuXStQWREge3JEq-8" target="MZ17suuXStQWREge3JEq-9">
          <mxGeometry relative="1" as="geometry" />
        </mxCell>
        <mxCell id="MZ17suuXStQWREge3JEq-8" value="&lt;b&gt;Context Preprocessor&lt;/b&gt;&lt;div&gt;Processes and organizes data&lt;/div&gt;" style="rounded=1;whiteSpace=wrap;html=1;" vertex="1" parent="1">
          <mxGeometry x="440" y="235" width="120" height="70" as="geometry" />
        </mxCell>
        <mxCell id="MZ17suuXStQWREge3JEq-20" style="edgeStyle=orthogonalEdgeStyle;rounded=0;orthogonalLoop=1;jettySize=auto;html=1;exitX=1;exitY=0.5;exitDx=0;exitDy=0;entryX=0;entryY=0.25;entryDx=0;entryDy=0;" edge="1" parent="1" source="MZ17suuXStQWREge3JEq-9" target="MZ17suuXStQWREge3JEq-12">
          <mxGeometry relative="1" as="geometry" />
        </mxCell>
        <mxCell id="MZ17suuXStQWREge3JEq-9" value="&lt;b&gt;Query Handler&lt;/b&gt;&lt;div&gt;sends data to GPT-4&lt;b&gt;&lt;/b&gt;&lt;/div&gt;" style="rounded=1;whiteSpace=wrap;html=1;" vertex="1" parent="1">
          <mxGeometry x="440" y="360" width="120" height="60" as="geometry" />
        </mxCell>
        <mxCell id="MZ17suuXStQWREge3JEq-21" style="edgeStyle=orthogonalEdgeStyle;rounded=0;orthogonalLoop=1;jettySize=auto;html=1;exitX=0;exitY=0.75;exitDx=0;exitDy=0;entryX=1;entryY=0.5;entryDx=0;entryDy=0;" edge="1" parent="1" source="MZ17suuXStQWREge3JEq-12" target="MZ17suuXStQWREge3JEq-14">
          <mxGeometry relative="1" as="geometry" />
        </mxCell>
        <mxCell id="MZ17suuXStQWREge3JEq-12" value="&lt;b&gt;GPT-4 Model&lt;/b&gt;&lt;div&gt;Processes context, generates ranked suggestions&lt;/div&gt;" style="rounded=1;whiteSpace=wrap;html=1;" vertex="1" parent="1">
          <mxGeometry x="640" y="330" width="200" height="240" as="geometry" />
        </mxCell>
        <mxCell id="MZ17suuXStQWREge3JEq-17" value="" style="edgeStyle=orthogonalEdgeStyle;rounded=0;orthogonalLoop=1;jettySize=auto;html=1;" edge="1" parent="1" source="MZ17suuXStQWREge3JEq-14" target="MZ17suuXStQWREge3JEq-15">
          <mxGeometry relative="1" as="geometry" />
        </mxCell>
        <mxCell id="MZ17suuXStQWREge3JEq-14" value="&lt;b&gt;Suggestion Ranking&lt;/b&gt;&lt;div&gt;Ranks by relevance&lt;/div&gt;" style="rounded=1;whiteSpace=wrap;html=1;" vertex="1" parent="1">
          <mxGeometry x="440" y="480" width="120" height="60" as="geometry" />
        </mxCell>
        <mxCell id="MZ17suuXStQWREge3JEq-15" value="&lt;b&gt;Result Delivery&lt;/b&gt;&lt;div&gt;Sends top suggestions to the editor&lt;/div&gt;" style="rounded=1;whiteSpace=wrap;html=1;" vertex="1" parent="1">
          <mxGeometry x="240" y="480" width="120" height="60" as="geometry" />
        </mxCell>
      </root>
    </mxGraphModel>
  </diagram>
</mxfile>
